<svg xmlns="http://www.w3.org/2000/svg" width="65" height="40"><path style="width:100%;height:100%" d="M31.04 14.36c-.188-1.66-.587-2.141-.864-2.368-.446-.351-1.254-.476-2.332-.55-1.73-.118-4.672-.192-7.844-.192-3.18 0-6.113.066-7.844.191-1.078.075-1.886.2-2.332.551-.277.227-.668.707-.863 2.367-.281 2.391-.281 7.844 0 10.239.195 1.656.586 2.14.863 2.367.446.348 1.254.473 2.332.547 1.73.117 4.664.195 7.844.195 3.18 0 6.113-.078 7.844-.195 1.078-.075 1.886-.2 2.332-.547.277-.219.668-.711.863-2.367.281-2.395.281-7.848 0-10.239zm-13.76 8.694v-7.16l6.79 3.574zm0 0"/></svg>