<svg xmlns="http://www.w3.org/2000/svg" viewBox="0 0 32 32"><path d="M24.832 11.487c-.152-1.327-.468-1.713-.692-1.893-.356-.28-1.002-.38-1.865-.44C20.89 9.06 18.538 9 16 9c-2.544 0-4.89.053-6.275.153-.863.06-1.509.16-1.865.44-.224.18-.534.567-.692 1.894-.224 1.914-.224 6.276 0 8.19.158 1.327.468 1.714.692 1.894.356.28 1.002.38 1.865.44 1.384.093 3.73.153 6.275.153 2.544 0 4.89-.06 6.275-.153.863-.06 1.509-.16 1.865-.44.224-.174.534-.567.692-1.894.224-1.914.224-6.276 0-8.19zm-11.007 6.956v-5.728l5.431 2.86-5.431 2.868z" color="#fff" fill="#fff"/></svg>