<svg display="none"
    xmlns="http://www.w3.org/2000/svg">
    <symbol id="instagrams" viewBox="0 0 32 32"
        xmlns="http://www.w3.org/2000/svg">
        <defs>
            <radialGradient id="radial0" gradientUnits="userSpaceOnUse" cx="0.301942" cy="1.077421" fx="0.301942" fy="1.077421" r="1.432103" gradientTransform="matrix(40,0,0,40,0,0)">
                <stop offset="0" style="stop-color:rgb(100%,84.705882%,47.843137%);stop-opacity:1;"/>
                <stop offset="0" style="stop-color:rgb(98.823529%,80.784314%,47.058824%);stop-opacity:1;"/>
                <stop offset="0.2263" style="stop-color:rgb(96.078431%,70.588235%,44.313725%);stop-opacity:1;"/>
                <stop offset="0.3378" style="stop-color:rgb(92.156863%,55.294118%,39.607843%);stop-opacity:1;"/>
                <stop offset="0.449" style="stop-color:rgb(89.019608%,37.647059%,34.509804%);stop-opacity:1;"/>
                <stop offset="0.6786" style="stop-color:rgb(80.392157%,21.176471%,58.039216%);stop-opacity:1;"/>
                <stop offset="1" style="stop-color:rgb(40%,40.784314%,69.019608%);stop-opacity:1;"/>
            </radialGradient>
            <radialGradient id="radial1" gradientUnits="userSpaceOnUse" cx="0.301942" cy="1.077421" fx="0.301942" fy="1.077421" r="1.432103" gradientTransform="matrix(40,0,0,40,0,0)">
                <stop offset="0" style="stop-color:rgb(99.607843%,78.039216%,25.490196%);stop-opacity:1;"/>
                <stop offset="0" style="stop-color:rgb(98.039216%,72.941176%,25.490196%);stop-opacity:1;"/>
                <stop offset="0.2263" style="stop-color:rgb(94.509804%,60%,24.705882%);stop-opacity:1;"/>
                <stop offset="0.3378" style="stop-color:rgb(89.803922%,42.352941%,21.960784%);stop-opacity:1;"/>
                <stop offset="0.449" style="stop-color:rgb(86.27451%,22.352941%,18.431373%);stop-opacity:1;"/>
                <stop offset="0.6786" style="stop-color:rgb(69.019608%,16.862745%,49.411765%);stop-opacity:1;"/>
                <stop offset="1" style="stop-color:rgb(31.372549%,32.156863%,61.176471%);stop-opacity:1;"/>
            </radialGradient>
        </defs>
        <g id="surface1">
            <path style=" stroke:none;fill-rule:nonzero;fill:url(#radial0);" d="M 0 0 L 40 0 L 40 40 L 0 40 Z M 15.878906 10 C 12.652344 10 10 12.648438 10 15.878906 L 10 24.121094 C 10 27.347656 12.648438 30 15.878906 30 L 24.121094 30 C 27.347656 30 30 27.351562 30 24.121094 L 30 15.878906 C 30 12.652344 27.351562 10 24.121094 10 Z M 15.878906 11.816406 L 24.121094 11.816406 C 26.367188 11.816406 28.183594 13.632812 28.183594 15.878906 L 28.183594 24.121094 C 28.183594 26.367188 26.367188 28.183594 24.121094 28.183594 L 15.878906 28.183594 C 13.632812 28.183594 11.816406 26.367188 11.816406 24.121094 L 11.816406 15.878906 C 11.816406 13.632812 13.632812 11.816406 15.878906 11.816406 Z M 25.371094 13.808594 C 24.910156 13.808594 24.546875 14.171875 24.546875 14.628906 C 24.546875 15.089844 24.910156 15.453125 25.371094 15.453125 C 25.828125 15.453125 26.191406 15.089844 26.191406 14.628906 C 26.191406 14.171875 25.828125 13.808594 25.371094 13.808594 Z M 20 14.546875 C 17 14.546875 14.546875 17 14.546875 20 C 14.546875 23 17 25.453125 20 25.453125 C 23 25.453125 25.453125 23 25.453125 20 C 25.453125 17 23 14.546875 20 14.546875 Z M 20 16.363281 C 22.019531 16.363281 23.636719 17.980469 23.636719 20 C 23.636719 22.019531 22.019531 23.636719 20 23.636719 C 17.980469 23.636719 16.363281 22.019531 16.363281 20 C 16.363281 17.980469 17.980469 16.363281 20 16.363281 Z M 20 16.363281 "/>
            <path style=" stroke:none;fill-rule:nonzero;fill:url(#radial1);" d="M 0 0 L 40 0 L 40 40 L 0 40 Z M 15.878906 10 C 12.652344 10 10 12.648438 10 15.878906 L 10 24.121094 C 10 27.347656 12.648438 30 15.878906 30 L 24.121094 30 C 27.347656 30 30 27.351562 30 24.121094 L 30 15.878906 C 30 12.652344 27.351562 10 24.121094 10 Z M 15.878906 11.816406 L 24.121094 11.816406 C 26.367188 11.816406 28.183594 13.632812 28.183594 15.878906 L 28.183594 24.121094 C 28.183594 26.367188 26.367188 28.183594 24.121094 28.183594 L 15.878906 28.183594 C 13.632812 28.183594 11.816406 26.367188 11.816406 24.121094 L 11.816406 15.878906 C 11.816406 13.632812 13.632812 11.816406 15.878906 11.816406 Z M 25.371094 13.808594 C 24.910156 13.808594 24.546875 14.171875 24.546875 14.628906 C 24.546875 15.089844 24.910156 15.453125 25.371094 15.453125 C 25.828125 15.453125 26.191406 15.089844 26.191406 14.628906 C 26.191406 14.171875 25.828125 13.808594 25.371094 13.808594 Z M 20 14.546875 C 17 14.546875 14.546875 17 14.546875 20 C 14.546875 23 17 25.453125 20 25.453125 C 23 25.453125 25.453125 23 25.453125 20 C 25.453125 17 23 14.546875 20 14.546875 Z M 20 16.363281 C 22.019531 16.363281 23.636719 17.980469 23.636719 20 C 23.636719 22.019531 22.019531 23.636719 20 23.636719 C 17.980469 23.636719 16.363281 22.019531 16.363281 20 C 16.363281 17.980469 17.980469 16.363281 20 16.363281 Z M 20 16.363281 "/>
            <path style=" stroke:none;fill-rule:nonzero;fill:rgb(0%,0%,0%);fill-opacity:1;" d="M 20 38.75 C 30.355469 38.75 38.75 30.355469 38.75 20 C 38.75 9.644531 30.355469 1.25 20 1.25 C 9.644531 1.25 1.25 9.644531 1.25 20 C 1.25 30.355469 9.644531 38.75 20 38.75 Z M 20 40 C 8.953125 40 0 31.046875 0 20 C 0 8.953125 8.953125 0 20 0 C 31.046875 0 40 8.953125 40 20 C 40 31.046875 31.046875 40 20 40 Z M 20 40 "/>
            <path style=" stroke:none;fill-rule:nonzero;fill:rgb(100%,100%,100%);fill-opacity:1;" d="M 15.878906 10 C 12.652344 10 10 12.648438 10 15.878906 L 10 24.121094 C 10 27.347656 12.648438 30 15.878906 30 L 24.121094 30 C 27.347656 30 30 27.351562 30 24.121094 L 30 15.878906 C 30 12.652344 27.351562 10 24.121094 10 Z M 15.878906 11.816406 L 24.121094 11.816406 C 26.367188 11.816406 28.183594 13.632812 28.183594 15.878906 L 28.183594 24.121094 C 28.183594 26.367188 26.367188 28.183594 24.121094 28.183594 L 15.878906 28.183594 C 13.632812 28.183594 11.816406 26.367188 11.816406 24.121094 L 11.816406 15.878906 C 11.816406 13.632812 13.632812 11.816406 15.878906 11.816406 Z M 25.371094 13.808594 C 24.910156 13.808594 24.546875 14.171875 24.546875 14.628906 C 24.546875 15.089844 24.910156 15.453125 25.371094 15.453125 C 25.828125 15.453125 26.191406 15.089844 26.191406 14.628906 C 26.191406 14.171875 25.828125 13.808594 25.371094 13.808594 Z M 20 14.546875 C 17 14.546875 14.546875 17 14.546875 20 C 14.546875 23 17 25.453125 20 25.453125 C 23 25.453125 25.453125 23 25.453125 20 C 25.453125 17 23 14.546875 20 14.546875 Z M 20 16.363281 C 22.019531 16.363281 23.636719 17.980469 23.636719 20 C 23.636719 22.019531 22.019531 23.636719 20 23.636719 C 17.980469 23.636719 16.363281 22.019531 16.363281 20 C 16.363281 17.980469 17.980469 16.363281 20 16.363281 Z M 20 16.363281 "/>
            <path style=" stroke:none;fill-rule:nonzero;fill:rgb(100%,100%,100%);fill-opacity:1;" d="M 15.878906 10 C 12.652344 10 10 12.648438 10 15.878906 L 10 24.121094 C 10 27.347656 12.648438 30 15.878906 30 L 24.121094 30 C 27.347656 30 30 27.351562 30 24.121094 L 30 15.878906 C 30 12.652344 27.351562 10 24.121094 10 Z M 15.878906 11.816406 L 24.121094 11.816406 C 26.367188 11.816406 28.183594 13.632812 28.183594 15.878906 L 28.183594 24.121094 C 28.183594 26.367188 26.367188 28.183594 24.121094 28.183594 L 15.878906 28.183594 C 13.632812 28.183594 11.816406 26.367188 11.816406 24.121094 L 11.816406 15.878906 C 11.816406 13.632812 13.632812 11.816406 15.878906 11.816406 Z M 25.371094 13.808594 C 24.910156 13.808594 24.546875 14.171875 24.546875 14.628906 C 24.546875 15.089844 24.910156 15.453125 25.371094 15.453125 C 25.828125 15.453125 26.191406 15.089844 26.191406 14.628906 C 26.191406 14.171875 25.828125 13.808594 25.371094 13.808594 Z M 20 14.546875 C 17 14.546875 14.546875 17 14.546875 20 C 14.546875 23 17 25.453125 20 25.453125 C 23 25.453125 25.453125 23 25.453125 20 C 25.453125 17 23 14.546875 20 14.546875 Z M 20 16.363281 C 22.019531 16.363281 23.636719 17.980469 23.636719 20 C 23.636719 22.019531 22.019531 23.636719 20 23.636719 C 17.980469 23.636719 16.363281 22.019531 16.363281 20 C 16.363281 17.980469 17.980469 16.363281 20 16.363281 Z M 20 16.363281 "/>
        </g>
    </symbol>
</svg>